<svg xmlns="http://www.w3.org/2000/svg" class="el-tooltip" style="margin: auto;" color-interpolation-filters="sRGB" viewBox="0 0 340 250" preserveAspectRatio="xMidYMid meet" width="100%" height="100%" xmlns:xlink="http://www.w3.org/1999/xlink" version="1.0" data-v-37f88cd9=""> <rect class="watermarklayer" fill="url(#watermark)" fill-opacity="1" x="0" y="0" width="100%" height="100%" data-v-37f88cd9=""/> <g class="newinitialsvg-g newinitialsvg" fill="#333" transform="translate(135.8 89.1987)" data-v-37f88cd9=""><g class="tp-name" transform="translate(0)"><g mask="url(&quot;#2b352883-ed12-4b22-b994-60ad86231479&quot;)" transform="translate(0)"><polyline fill="#7a5d7e" fill-opacity="1" points="0,0 23.1,12 23.1,43.65 0,55.65 0,12" x="0" y="0" width="23.1" height="31.65"/> <g fill="#fff" transform="translate(3 15)"><path transform="translate(-2 24.75)" d="M 4.3 -21 Q 2.8 -20.4 2.8 -19.95 L 2.8 -19.95 Q 2.8 -19.45 3.08 -19.15 Q 3.35 -18.85 3.95 -18.55 L 3.95 -18.55 Q 4.75 -18.15 6.2 -18.15 L 6.2 -18.15 Q 7.25 -18.15 8 -18.35 L 8 -18.35 L 9.85 -18.9 L 10.4 -18.9 L 10.45 -18.55 Q 10.05 -18.1 9.5 -16.8 L 9.5 -16.8 Q 9.15 -15.75 8.45 -14.5 L 8.45 -14.5 L 7.3 -12.5 Q 6.25 -10.85 4.45 -7.6 L 4.45 -7.6 Q 2 -3.5 2 -2.4 L 2 -2.4 Q 2 -1.4 3.1 -0.3 L 3.1 -0.3 Q 4.15 0.9 5.35 0.9 L 5.35 0.9 Q 6 0.9 6.9 0.25 L 6.9 0.25 Q 7.2 -0.1 7.55 -0.33 Q 7.9 -0.55 8 -0.65 L 8 -0.65 L 9.15 -0.95 Q 10.15 -1.05 10.4 -1.15 L 10.4 -1.15 Q 10.75 -1.3 11.35 -1.53 Q 11.95 -1.75 13 -2.15 L 13 -2.15 L 15.55 -2.85 Q 15.75 -2.9 16.13 -3 Q 16.5 -3.1 16.95 -3.1 L 16.95 -3.1 Q 17.55 -3.1 18.55 -3.4 L 18.55 -3.4 Q 19.1 -3.45 19.1 -4.15 L 19.1 -4.15 Q 19.1 -4.95 18.8 -5.58 Q 18.5 -6.2 17.8 -6.9 L 17.8 -6.9 Q 16.9 -7.5 16.25 -7.83 Q 15.6 -8.15 14.9 -8.15 L 14.9 -8.15 Q 14.5 -8.15 13.7 -7.8 Q 12.9 -7.45 12.45 -7.25 L 12.45 -7.25 Q 10.7 -6.25 10.05 -6.25 L 10.05 -6.25 L 9.9 -6.25 L 9.5 -6.55 Q 9.5 -7.25 10.4 -8.55 L 10.4 -8.55 Q 11.2 -9.8 11.25 -10.05 L 11.25 -10.05 L 13.1 -13.55 L 14.9 -17.1 L 15.75 -18.5 L 16.45 -20.6 Q 16.45 -22.25 15.1 -23.45 L 15.1 -23.45 Q 13.65 -24.75 12.45 -24.75 L 12.45 -24.75 Q 11.85 -24.75 9.7 -23.4 L 9.7 -23.4 Q 9.4 -23.1 8 -22.4 L 8 -22.4 Q 6.65 -21.4 6 -21.65 L 6 -21.65 Q 5.95 -21.55 5.38 -21.38 Q 4.8 -21.2 4.3 -21 L 4.3 -21 Z"/></g></g><g transform="translate(27.1)"><g fill="#333" transform="translate(0 15)"><path transform="translate(-2 24.75)" d="M 4.3 -21 Q 2.8 -20.4 2.8 -19.95 L 2.8 -19.95 Q 2.8 -19.45 3.08 -19.15 Q 3.35 -18.85 3.95 -18.55 L 3.95 -18.55 Q 4.75 -18.15 6.2 -18.15 L 6.2 -18.15 Q 7.25 -18.15 8 -18.35 L 8 -18.35 L 9.85 -18.9 L 10.4 -18.9 L 10.45 -18.55 Q 10.05 -18.1 9.5 -16.8 L 9.5 -16.8 Q 9.15 -15.75 8.45 -14.5 L 8.45 -14.5 L 7.3 -12.5 Q 6.25 -10.85 4.45 -7.6 L 4.45 -7.6 Q 2 -3.5 2 -2.4 L 2 -2.4 Q 2 -1.4 3.1 -0.3 L 3.1 -0.3 Q 4.15 0.9 5.35 0.9 L 5.35 0.9 Q 6 0.9 6.9 0.25 L 6.9 0.25 Q 7.2 -0.1 7.55 -0.33 Q 7.9 -0.55 8 -0.65 L 8 -0.65 L 9.15 -0.95 Q 10.15 -1.05 10.4 -1.15 L 10.4 -1.15 Q 10.75 -1.3 11.35 -1.53 Q 11.95 -1.75 13 -2.15 L 13 -2.15 L 15.55 -2.85 Q 15.75 -2.9 16.13 -3 Q 16.5 -3.1 16.95 -3.1 L 16.95 -3.1 Q 17.55 -3.1 18.55 -3.4 L 18.55 -3.4 Q 19.1 -3.45 19.1 -4.15 L 19.1 -4.15 Q 19.1 -4.95 18.8 -5.58 Q 18.5 -6.2 17.8 -6.9 L 17.8 -6.9 Q 16.9 -7.5 16.25 -7.83 Q 15.6 -8.15 14.9 -8.15 L 14.9 -8.15 Q 14.5 -8.15 13.7 -7.8 Q 12.9 -7.45 12.45 -7.25 L 12.45 -7.25 Q 10.7 -6.25 10.05 -6.25 L 10.05 -6.25 L 9.9 -6.25 L 9.5 -6.55 Q 9.5 -7.25 10.4 -8.55 L 10.4 -8.55 Q 11.2 -9.8 11.25 -10.05 L 11.25 -10.05 L 13.1 -13.55 L 14.9 -17.1 L 15.75 -18.5 L 16.45 -20.6 Q 16.45 -22.25 15.1 -23.45 L 15.1 -23.45 Q 13.65 -24.75 12.45 -24.75 L 12.45 -24.75 Q 11.85 -24.75 9.7 -23.4 L 9.7 -23.4 Q 9.4 -23.1 8 -22.4 L 8 -22.4 Q 6.65 -21.4 6 -21.65 L 6 -21.65 Q 5.95 -21.55 5.38 -21.38 Q 4.8 -21.2 4.3 -21 L 4.3 -21 Z"/></g></g><g transform="translate(48.2)"><g fill="#333" transform="translate(0 15)"><path transform="translate(-2 24.75)" d="M 5.15 -2.9 Q 6.9 -1 8.7 -0.05 Q 10.5 0.9 12.5 0.9 L 12.5 0.9 Q 13.75 0.9 15.15 0.63 Q 16.55 0.35 18.7 -0.25 L 18.7 -0.25 Q 20.4 -0.65 21.3 -1.35 Q 22.2 -2.05 22.2 -2.9 L 22.2 -2.9 Q 22.2 -4.05 21.78 -4.95 Q 21.35 -5.85 20.6 -6.45 L 20.6 -6.45 Q 19.15 -7.6 17.1 -7.6 L 17.1 -7.6 Q 15.55 -7.6 13.05 -6.9 L 13.05 -6.9 Q 10.75 -6.2 9 -6.2 L 9 -6.2 Q 8.65 -6.2 8.63 -6.58 Q 8.6 -6.95 8.5 -7.4 Q 8.4 -7.85 7.95 -8.4 L 7.95 -8.4 Q 6.8 -9.75 6.8 -11.3 L 6.8 -11.3 Q 6.8 -11.95 7.1 -13.55 L 7.1 -13.55 Q 7.35 -13.65 7.45 -14 Q 7.55 -14.35 7.55 -14.4 L 7.55 -14.4 Q 7.6 -14.7 7.75 -15.03 Q 7.9 -15.35 7.95 -15.45 L 7.95 -15.45 L 10.4 -19.05 Q 10.9 -19.05 11.05 -19.55 L 11.05 -19.55 L 11.4 -20.05 Q 12.1 -20.65 13.35 -20.65 L 13.35 -20.65 Q 14.9 -20.65 17.5 -19.6 L 17.5 -19.6 Q 17.7 -19.55 17.93 -19.58 Q 18.15 -19.6 18.35 -19.55 L 18.35 -19.55 Q 19.05 -19.25 19.35 -19.25 L 19.35 -19.25 L 19.85 -19.25 Q 19.9 -19.3 20 -19.48 Q 20.1 -19.65 20.1 -19.95 L 20.1 -19.95 Q 20.1 -21.5 17.5 -23.2 L 17.5 -23.2 Q 14.8 -24.75 13.05 -24.75 L 13.05 -24.75 Q 10.7 -24.75 8.78 -23.78 Q 6.85 -22.8 5.15 -20.75 L 5.15 -20.75 Q 2 -16.85 2 -11.45 L 2 -11.45 Q 2 -9.05 2.8 -6.88 Q 3.6 -4.7 5.15 -2.9 L 5.15 -2.9 Z"/></g></g></g> <g class="tp-slogan" fill="#312b30" transform="translate(3.89 62.65)"><!----> <!----> <!----> <g><path transform="translate(-0.890625 8.8125)" d="M 2.06 -5.06 L 6.56 -5.06 L 6.56 -8.58 L 7.73 -8.58 L 7.73 0 L 6.56 0 L 6.56 -3.98 L 2.06 -3.98 L 2.06 0 L 0.89 0 L 0.89 -8.58 L 2.06 -8.58 L 2.06 -5.06 Z M 12.53 0 L 11.68 -2.48 L 8.21 -2.48 L 7.32 0 L 6.15 0 L 9.38 -8.58 L 10.7 -8.58 L 13.79 0 L 12.53 0 Z M 9.95 -7.31 L 8.59 -3.52 L 11.26 -3.52 L 9.99 -7.31 L 9.95 -7.31 Z M 15.82 -7.64 L 13.47 -7.64 L 13.47 -4.64 L 15.77 -4.64 Q 17.55 -4.64 17.55 -6.19 L 17.55 -6.19 Q 17.55 -7.59 15.82 -7.64 L 15.82 -7.64 Z M 16.19 -3.61 L 13.47 -3.61 L 13.47 0 L 12.3 0 L 12.3 -8.58 L 16.19 -8.58 Q 18.63 -8.48 18.72 -6.19 L 18.72 -6.19 Q 18.58 -3.7 16.19 -3.61 L 16.19 -3.61 Z M 21.12 -7.64 L 18.78 -7.64 L 18.78 -4.64 L 21.08 -4.64 Q 22.86 -4.64 22.86 -6.19 L 22.86 -6.19 Q 22.86 -7.59 21.12 -7.64 L 21.12 -7.64 Z M 21.5 -3.61 L 18.78 -3.61 L 18.78 0 L 17.61 0 L 17.61 -8.58 L 21.5 -8.58 Q 23.93 -8.48 24.03 -6.19 L 24.03 -6.19 Q 23.89 -3.7 21.5 -3.61 L 21.5 -3.61 Z M 29.71 -8.58 L 26.48 -3.47 L 26.48 0 L 25.3 0 L 25.3 -3.47 L 22.07 -8.58 L 23.43 -8.58 L 25.87 -4.45 L 28.35 -8.58 L 29.71 -8.58 Z M 35.92 -6.05 L 35.92 -6.05 L 34.79 -6.05 Q 34.37 -7.78 32.4 -7.83 L 32.4 -7.83 Q 29.68 -7.69 29.59 -4.36 L 29.59 -4.36 Q 29.59 -0.8 32.45 -0.8 L 32.45 -0.8 Q 34.42 -0.84 34.88 -3.19 L 34.88 -3.19 L 36.01 -3.19 Q 35.49 0.05 32.21 0.14 L 32.21 0.14 Q 28.46 0 28.37 -4.31 L 28.37 -4.31 Q 28.56 -8.63 32.4 -8.81 L 32.4 -8.81 Q 35.45 -8.72 35.92 -6.05 Z M 41.5 -4.27 L 41.5 -4.27 Q 41.32 -7.64 38.5 -7.83 L 38.5 -7.83 Q 35.64 -7.69 35.5 -4.27 L 35.5 -4.27 Q 35.64 -0.94 38.5 -0.8 L 38.5 -0.8 Q 41.32 -0.98 41.5 -4.27 Z M 42.67 -4.27 L 42.67 -4.27 Q 42.39 0 38.5 0.14 L 38.5 0.14 Q 34.57 0 34.28 -4.27 L 34.28 -4.27 Q 34.52 -8.72 38.5 -8.81 L 38.5 -8.81 Q 42.39 -8.67 42.67 -4.27 Z M 44.89 0 L 41.42 0 L 41.42 -8.58 L 44.93 -8.58 Q 48.4 -8.39 48.54 -4.41 L 48.54 -4.41 Q 48.36 -0.09 44.89 0 L 44.89 0 Z M 44.75 -7.64 L 42.59 -7.64 L 42.59 -0.98 L 44.84 -0.98 Q 47.28 -1.13 47.37 -4.31 L 47.37 -4.31 Q 47.32 -7.55 44.75 -7.64 L 44.75 -7.64 Z M 47.52 -8.58 L 48.69 -8.58 L 48.69 0 L 47.52 0 L 47.52 -8.58 Z M 49.41 -8.58 L 53.72 -1.64 L 53.72 -8.58 L 54.84 -8.58 L 54.84 0 L 53.53 0 L 49.17 -6.94 L 49.12 -6.94 L 49.12 0 L 48 0 L 48 -8.58 L 49.41 -8.58 Z M 60.38 -3.61 L 57.76 -3.61 L 57.76 -4.59 L 61.51 -4.59 L 61.51 0 L 60.76 0 L 60.48 -1.08 Q 59.49 0.09 57.67 0.14 L 57.67 0.14 Q 55.93 0.14 54.99 -0.75 L 54.99 -0.75 Q 53.59 -2.06 53.63 -4.36 L 53.63 -4.36 Q 53.96 -8.63 57.71 -8.81 L 57.71 -8.81 Q 60.9 -8.63 61.37 -6 L 61.37 -6 L 60.24 -6 Q 59.77 -7.78 57.67 -7.83 L 57.67 -7.83 Q 54.99 -7.64 54.85 -4.31 L 54.85 -4.31 Q 54.85 -0.75 57.71 -0.75 L 57.71 -0.75 Q 58.74 -0.75 59.49 -1.31 L 59.49 -1.31 Q 60.43 -2.06 60.38 -3.61 L 60.38 -3.61 Z"/></g></g></g><mask id="2b352883-ed12-4b22-b994-60ad86231479"><polyline fill="white" fill-opacity="1" points="0,0 23.1,12 23.1,43.65 0,55.65 0,12" x="0" y="0" width="23.1" height="31.65"/> <g fill="black" transform="translate(3 15)"><path transform="translate(-2 24.75)" d="M 4.3 -21 Q 2.8 -20.4 2.8 -19.95 L 2.8 -19.95 Q 2.8 -19.45 3.08 -19.15 Q 3.35 -18.85 3.95 -18.55 L 3.95 -18.55 Q 4.75 -18.15 6.2 -18.15 L 6.2 -18.15 Q 7.25 -18.15 8 -18.35 L 8 -18.35 L 9.85 -18.9 L 10.4 -18.9 L 10.45 -18.55 Q 10.05 -18.1 9.5 -16.8 L 9.5 -16.8 Q 9.15 -15.75 8.45 -14.5 L 8.45 -14.5 L 7.3 -12.5 Q 6.25 -10.85 4.45 -7.6 L 4.45 -7.6 Q 2 -3.5 2 -2.4 L 2 -2.4 Q 2 -1.4 3.1 -0.3 L 3.1 -0.3 Q 4.15 0.9 5.35 0.9 L 5.35 0.9 Q 6 0.9 6.9 0.25 L 6.9 0.25 Q 7.2 -0.1 7.55 -0.33 Q 7.9 -0.55 8 -0.65 L 8 -0.65 L 9.15 -0.95 Q 10.15 -1.05 10.4 -1.15 L 10.4 -1.15 Q 10.75 -1.3 11.35 -1.53 Q 11.95 -1.75 13 -2.15 L 13 -2.15 L 15.55 -2.85 Q 15.75 -2.9 16.13 -3 Q 16.5 -3.1 16.95 -3.1 L 16.95 -3.1 Q 17.55 -3.1 18.55 -3.4 L 18.55 -3.4 Q 19.1 -3.45 19.1 -4.15 L 19.1 -4.15 Q 19.1 -4.95 18.8 -5.58 Q 18.5 -6.2 17.8 -6.9 L 17.8 -6.9 Q 16.9 -7.5 16.25 -7.83 Q 15.6 -8.15 14.9 -8.15 L 14.9 -8.15 Q 14.5 -8.15 13.7 -7.8 Q 12.9 -7.45 12.45 -7.25 L 12.45 -7.25 Q 10.7 -6.25 10.05 -6.25 L 10.05 -6.25 L 9.9 -6.25 L 9.5 -6.55 Q 9.5 -7.25 10.4 -8.55 L 10.4 -8.55 Q 11.2 -9.8 11.25 -10.05 L 11.25 -10.05 L 13.1 -13.55 L 14.9 -17.1 L 15.75 -18.5 L 16.45 -20.6 Q 16.45 -22.25 15.1 -23.45 L 15.1 -23.45 Q 13.65 -24.75 12.45 -24.75 L 12.45 -24.75 Q 11.85 -24.75 9.7 -23.4 L 9.7 -23.4 Q 9.4 -23.1 8 -22.4 L 8 -22.4 Q 6.65 -21.4 6 -21.65 L 6 -21.65 Q 5.95 -21.55 5.38 -21.38 Q 4.8 -21.2 4.3 -21 L 4.3 -21 Z"/></g></mask></svg>