<svg xmlns="http://www.w3.org/2000/svg" class="el-tooltip" style="margin: auto;" color-interpolation-filters="sRGB" viewBox="0 0 340 250" preserveAspectRatio="xMidYMid meet" width="100%" height="100%" xmlns:xlink="http://www.w3.org/1999/xlink" version="1.0" data-v-37f88cd9=""> <rect class="watermarklayer" fill="url(#watermark)" fill-opacity="1" x="0" y="0" width="100%" height="100%" data-v-37f88cd9=""/> <g class="icon-text-wrapper icon-svg-group iconsvg" fill="#be1e2d" transform="translate(128.09 75.002)" data-v-37f88cd9=""><g class="iconsvg-imagesvg" transform="translate(11.9097)"><rect class="image-rect" fill="#be1e2d" fill-opacity="0" stroke-width="2" x="0" y="0" width="60" height="48.3436"/> <svg class="image-svg-svg" x="0" y="0" width="60" height="48.3436" filtersec="colorsb2281958488"><svg viewBox="0 0 151.23 121.85"><defs><linearGradient id="a11c00285-d786-4653-8e15-0987c0dc54ea" gradientUnits="userSpaceOnUse" x1="75.62" y1="167.65" x2="75.62" y2="-200.65"><stop stop-color="rgb(77, 77, 77)" offset="0"/><stop offset="1"/></linearGradient><linearGradient id="b5442a07e-f444-427a-9f7b-4de69731f885" gradientUnits="userSpaceOnUse" x1="76.45" y1="279.2" x2="76.45" y2="-277.39"><stop stop-color="rgb(249, 236, 49)" offset="0"/><stop stop-color="rgb(246, 146, 30)" offset="0.5"/><stop stop-color="rgb(242, 138, 31)" offset="0.57"/><stop stop-color="rgb(232, 117, 34)" offset="0.67"/><stop stop-color="rgb(215, 81, 38)" offset="0.8"/><stop stop-color="rgb(191, 33, 45)" offset="0.95"/><stop stop-color="rgb(190, 30, 45)" offset="0.96"/></linearGradient><linearGradient id="cc63e5581-1d4a-41e2-84ec-2ca96eafe178" gradientUnits="userSpaceOnUse" x1="100.99" y1="279.2" x2="100.99" y2="-277.39"><stop stop-color="rgb(249, 236, 49)" offset="0"/><stop stop-color="rgb(246, 146, 30)" offset="0.5"/><stop stop-color="rgb(242, 138, 31)" offset="0.57"/><stop stop-color="rgb(232, 117, 34)" offset="0.67"/><stop stop-color="rgb(215, 81, 38)" offset="0.8"/><stop stop-color="rgb(191, 33, 45)" offset="0.95"/><stop stop-color="rgb(190, 30, 45)" offset="0.96"/></linearGradient><linearGradient id="d9cb8e644-0a0e-4c06-a35c-4a1a86583c51" gradientUnits="userSpaceOnUse" x1="51.88" y1="279.2" x2="51.88" y2="-277.39"><stop stop-color="rgb(249, 236, 49)" offset="0"/><stop stop-color="rgb(246, 146, 30)" offset="0.5"/><stop stop-color="rgb(242, 138, 31)" offset="0.57"/><stop stop-color="rgb(232, 117, 34)" offset="0.67"/><stop stop-color="rgb(215, 81, 38)" offset="0.8"/><stop stop-color="rgb(191, 33, 45)" offset="0.95"/><stop stop-color="rgb(190, 30, 45)" offset="0.96"/></linearGradient></defs><g><g><path fill="url(#a11c00285-d786-4653-8e15-0987c0dc54ea)" d="M 141.2 12.48 L 151.23 0 l -13.68 6.83 l -14.42 6.1 a 120.49 120.49 0 0 1 -41.08 9.57 l -1.6 0.13 h -4 a 127.78 127.78 0 0 1 -38.35 -5.84 l -3.3 -1 l -3.3 -1 l -1.24 3.23 L 29 21.18 l -8.55 22.31 L 17 52.41 l -3.41 8.91 L 22.14 57 l 8.51 -4.32 c 13.78 -7 22.37 -10.33 34.57 -13 l -38 48.08 l -2.71 3.42 L 21 95.52 l -9.74 12.11 L 0 121.85 l 15.91 -8.71 L 30 106.46 c 15.53 -7.19 28.54 -8.69 40.81 -9.2 l 1.59 -0.14 h 4 a 127.88 127.88 0 0 1 38.39 5.88 l 3.3 1 l 3.3 1 l 1.24 -3.23 l 1.24 -3.23 l 8.55 -22.32 l 3.8 -9.9 l 3.8 -9.9 l -9.12 5.42 l -9.12 5.43 C 109.5 74.6 96.35 78.48 87.37 80.46 l 44.53 -56.24 Z M 78.45 85.81 c 6.69 -0.9 26.76 -4.37 45.22 -15.35 l 9.11 -5.46 l -3.8 9.9 l -8.55 22.31 l -1.24 3.23 l -3.3 -1 a 131.5 131.5 0 0 0 -39.46 -6 h -4 l -0.06 0.07 l -1.69 0.07 c -12.68 0.53 -28 2.4 -42 9.53 l -14.49 6.81 l 9.74 -12.11 l 3.46 -4.37 L 30.05 90 l 44.24 -55.9 c -18.56 3.3 -28 6.52 -45.3 15.3 l -8.51 4.31 l 3.42 -8.92 l 8.54 -22.29 l 1.24 -3.23 l 3.3 1 a 131.42 131.42 0 0 0 39.46 6 h 4 l 0.05 -0.07 l 1.69 -0.07 a 124.32 124.32 0 0 0 42.44 -9.89 l 13.68 -6.09 l -9.3 11.78 Z"/><path fill="url(#b5442a07e-f444-427a-9f7b-4de69731f885)" d="M 70.52 89.9 c -12.54 0.52 -31.85 3.67 -43.75 10.19 l 55.58 -70.23 a 128.2 128.2 0 0 0 43.78 -10.21 Z"/><path fill="url(#cc63e5581-1d4a-41e2-84ec-2ca96eafe178)" d="M 125.55 73.63 L 117 95.94 a 135.12 135.12 0 0 0 -40.56 -6.18 S 102 87.6 125.55 73.63 Z"/><path fill="url(#d9cb8e644-0a0e-4c06-a35c-4a1a86583c51)" d="M 35.88 23.81 A 135.1 135.1 0 0 0 76.43 30 C 55.83 33.5 46 36.68 27.32 46.13 Z"/></g></g></svg></svg> <!----></g> <g transform="translate(0 55.3436)"><g class="tp-name iconsvg-namesvg" transform="translate(0.684689)"><g><path transform="translate(-2 26.9)" d="M 10.8 -4.3 L 26.85 -20.85 L 26.6 -26.3 L 3.6 -26 L 3.9 -19.25 L 18.2 -20.1 L 2 -3.35 L 2.25 1.8 L 27.1 1.25 L 26.85 -5.55 Z M 40 -4.3 L 56.05 -20.85 L 55.8 -26.3 L 32.8 -26 L 33.1 -19.25 L 47.4 -20.1 L 31.2 -3.35 L 31.45 1.8 L 56.3 1.25 L 56.05 -5.55 Z M 67.85 -4.35 L 67.55 -20.1 L 83.9 -19.8 L 84.2 -26.9 L 60.9 -26.2 L 61.5 1.75 L 84.45 1.45 L 84.05 -5.3 Z"/></g> <!----> <!----> <!----> <!----> <!----> <!----> <!----></g> <g class="tp-slogan iconsvg-slogansvg" fill="#333" transform="translate(0 35.7)"><!----> <rect x="0" y="3.975" width="0" height="1"/> <rect x="82.45" y="3.975" width="0" height="1"/> <g transform="translate(3)"><path transform="translate(-0.890625 8.8125)" d="M 2.06 -5.06 L 6.56 -5.06 L 6.56 -8.58 L 7.73 -8.58 L 7.73 0 L 6.56 0 L 6.56 -3.98 L 2.06 -3.98 L 2.06 0 L 0.89 0 L 0.89 -8.58 L 2.06 -8.58 L 2.06 -5.06 Z M 14.36 0 L 13.52 -2.48 L 10.05 -2.48 L 9.16 0 L 7.99 0 L 11.22 -8.58 L 12.53 -8.58 L 15.63 0 L 14.36 0 Z M 11.78 -7.31 L 10.42 -3.52 L 13.1 -3.52 L 11.83 -7.31 L 11.78 -7.31 Z M 19.49 -7.64 L 17.14 -7.64 L 17.14 -4.64 L 19.44 -4.64 Q 21.22 -4.64 21.22 -6.19 L 21.22 -6.19 Q 21.22 -7.59 19.49 -7.64 L 19.49 -7.64 Z M 19.86 -3.61 L 17.14 -3.61 L 17.14 0 L 15.97 0 L 15.97 -8.58 L 19.86 -8.58 Q 22.3 -8.48 22.39 -6.19 L 22.39 -6.19 Q 22.25 -3.7 19.86 -3.61 L 19.86 -3.61 Z M 26.63 -7.64 L 24.29 -7.64 L 24.29 -4.64 L 26.58 -4.64 Q 28.37 -4.64 28.37 -6.19 L 28.37 -6.19 Q 28.37 -7.59 26.63 -7.64 L 26.63 -7.64 Z M 27.01 -3.61 L 24.29 -3.61 L 24.29 0 L 23.12 0 L 23.12 -8.58 L 27.01 -8.58 Q 29.44 -8.48 29.54 -6.19 L 29.54 -6.19 Q 29.4 -3.7 27.01 -3.61 L 27.01 -3.61 Z M 37.05 -8.58 L 33.82 -3.47 L 33.82 0 L 32.65 0 L 32.65 -3.47 L 29.41 -8.58 L 30.77 -8.58 L 33.21 -4.45 L 35.7 -8.58 L 37.05 -8.58 Z M 46.93 -6.05 L 46.93 -6.05 L 45.81 -6.05 Q 45.39 -7.78 43.42 -7.83 L 43.42 -7.83 Q 40.7 -7.69 40.61 -4.36 L 40.61 -4.36 Q 40.61 -0.8 43.47 -0.8 L 43.47 -0.8 Q 45.43 -0.84 45.9 -3.19 L 45.9 -3.19 L 47.03 -3.19 Q 46.51 0.05 43.23 0.14 L 43.23 0.14 Q 39.48 0 39.39 -4.31 L 39.39 -4.31 Q 39.57 -8.63 43.42 -8.81 L 43.42 -8.81 Q 46.47 -8.72 46.93 -6.05 Z M 54.36 -4.27 L 54.36 -4.27 Q 54.17 -7.64 51.36 -7.83 L 51.36 -7.83 Q 48.5 -7.69 48.36 -4.27 L 48.36 -4.27 Q 48.5 -0.94 51.36 -0.8 L 51.36 -0.8 Q 54.17 -0.98 54.36 -4.27 Z M 55.53 -4.27 L 55.53 -4.27 Q 55.25 0 51.36 0.14 L 51.36 0.14 Q 47.42 0 47.14 -4.27 L 47.14 -4.27 Q 47.37 -8.72 51.36 -8.81 L 51.36 -8.81 Q 55.25 -8.67 55.53 -4.27 Z M 59.58 0 L 56.11 0 L 56.11 -8.58 L 59.63 -8.58 Q 63.09 -8.39 63.23 -4.41 L 63.23 -4.41 Q 63.05 -0.09 59.58 0 L 59.58 0 Z M 59.44 -7.64 L 57.28 -7.64 L 57.28 -0.98 L 59.53 -0.98 Q 61.97 -1.13 62.06 -4.31 L 62.06 -4.31 Q 62.02 -7.55 59.44 -7.64 L 59.44 -7.64 Z M 64.05 -8.58 L 65.22 -8.58 L 65.22 0 L 64.05 0 L 64.05 -8.58 Z M 67.77 -8.58 L 72.08 -1.64 L 72.08 -8.58 L 73.21 -8.58 L 73.21 0 L 71.89 0 L 67.54 -6.94 L 67.49 -6.94 L 67.49 0 L 66.36 0 L 66.36 -8.58 L 67.77 -8.58 Z M 80.58 -3.61 L 77.96 -3.61 L 77.96 -4.59 L 81.71 -4.59 L 81.71 0 L 80.96 0 L 80.68 -1.08 Q 79.69 0.09 77.87 0.14 L 77.87 0.14 Q 76.13 0.14 75.19 -0.75 L 75.19 -0.75 Q 73.79 -2.06 73.83 -4.36 L 73.83 -4.36 Q 74.16 -8.63 77.91 -8.81 L 77.91 -8.81 Q 81.1 -8.63 81.57 -6 L 81.57 -6 L 80.44 -6 Q 79.97 -7.78 77.87 -7.83 L 77.87 -7.83 Q 75.19 -7.64 75.05 -4.31 L 75.05 -4.31 Q 75.05 -0.75 77.91 -0.75 L 77.91 -0.75 Q 78.94 -0.75 79.69 -1.31 L 79.69 -1.31 Q 80.63 -2.06 80.58 -3.61 L 80.58 -3.61 Z"/></g></g></g></g></svg>